M48
; DRILL file {KiCad 7.0.9} date Sat Feb 17 13:51:45 2024
; FORMAT={-:-/ absolute / metric / decimal}
; #@! TF.CreationDate,2024-02-17T13:51:45+09:00
; #@! TF.GenerationSoftware,Kicad,Pcbnew,7.0.9
; #@! TF.FileFunction,Plated,1,2,PTH
FMAT,2
METRIC
; #@! TA.AperFunction,Plated,PTH,ViaDrill
T1C0.400
; #@! TA.AperFunction,Plated,PTH,ComponentDrill
T2C0.950
; #@! TA.AperFunction,Plated,PTH,ComponentDrill
T3C1.000
; #@! TA.AperFunction,Plated,PTH,ComponentDrill
T4C1.300
; #@! TA.AperFunction,Plated,PTH,ComponentDrill
T5C2.300
; #@! TA.AperFunction,Plated,PTH,ComponentDrill
T6C2.700
%
G90
G05
T1
X36.218Y23.82
X45.968Y30.07
T2
X11.994Y13.996
X14.494Y13.996
X16.494Y13.996
X18.994Y13.996
X47.3Y13.996
X49.8Y13.996
X51.8Y13.996
X54.3Y13.996
T3
X26.949Y15.852
X26.949Y13.312
X26.949Y10.772
X61.886Y15.774
X61.886Y13.234
X61.886Y10.694
T4
X3.968Y17.82
X3.968Y11.32
X39.218Y17.82
X39.218Y11.32
T5
X8.924Y11.286
X22.064Y11.286
X44.23Y11.286
X57.37Y11.286
T6
X4.064Y4.064
X33.528Y70.358
X62.992Y4.064
T0
M30
