%TF.GenerationSoftware,KiCad,Pcbnew,7.0.9*%
%TF.CreationDate,2024-02-17T13:50:42+09:00*%
%TF.ProjectId,DeskHop,4465736b-486f-4702-9e6b-696361645f70,rev?*%
%TF.SameCoordinates,PX20378f0PY6e37550*%
%TF.FileFunction,Legend,Bot*%
%TF.FilePolarity,Positive*%
%FSLAX46Y46*%
G04 Gerber Fmt 4.6, Leading zero omitted, Abs format (unit mm)*
G04 Created by KiCad (PCBNEW 7.0.9) date 2024-02-17 13:50:42*
%MOMM*%
%LPD*%
G01*
G04 APERTURE LIST*
%ADD10C,0.120000*%
%ADD11C,0.150000*%
G04 APERTURE END LIST*
D10*
X33528000Y66831574D02*
X33527441Y65511574D01*
X33527238Y65031574D02*
X33526679Y63711574D01*
X33526476Y63231574D02*
X33525918Y61911574D01*
X33525715Y61431574D02*
X33525156Y60111575D01*
X33524953Y59631575D02*
X33524394Y58311575D01*
X33524191Y57831575D02*
X33523632Y56511575D01*
X33523429Y56031575D02*
X33522870Y54711575D01*
X33522667Y54231575D02*
X33522109Y52911575D01*
X33521905Y52431575D02*
X33521347Y51111575D01*
X33521144Y50631575D02*
X33520585Y49311576D01*
X33520382Y48831576D02*
X33519823Y47511576D01*
X33519620Y47031576D02*
X33519061Y45711576D01*
X33518858Y45231576D02*
X33518299Y43911576D01*
X33518096Y43431576D02*
X33517538Y42111576D01*
X33517334Y41631576D02*
X33516776Y40311576D01*
X33516573Y39831576D02*
X33516014Y38511577D01*
X33515811Y38031577D02*
X33515252Y36711577D01*
X33515049Y36231577D02*
X33514490Y34911577D01*
X33514287Y34431577D02*
X33513728Y33111577D01*
X33513525Y32631577D02*
X33512967Y31311577D01*
X33512763Y30831577D02*
X33512205Y29511577D01*
X33512002Y29031577D02*
X33511443Y27711578D01*
X33511240Y27231578D02*
X33510681Y25911578D01*
X33510478Y25431578D02*
X33509919Y24111578D01*
X33509716Y23631578D02*
X33509157Y22311578D01*
X33508954Y21831578D02*
X33508396Y20511578D01*
X33508192Y20031578D02*
X33507634Y18711578D01*
X33507431Y18231578D02*
X33506872Y16911578D01*
X33506669Y16431579D02*
X33506110Y15111579D01*
X33505907Y14631579D02*
X33505348Y13311579D01*
X33505145Y12831579D02*
X33504586Y11511579D01*
X33504383Y11031579D02*
X33503825Y9711579D01*
X33503621Y9231579D02*
X33503063Y7911579D01*
X33502860Y7431579D02*
X33502301Y6111579D01*
X33502098Y5631579D02*
X33501539Y4311580D01*
X33501336Y3831580D02*
X33500777Y2511580D01*
X33500574Y2031580D02*
X33500015Y711580D01*
X33499812Y231580D02*
X33499783Y162341D01*
X33155741Y66821540D02*
X31898288Y67197436D01*
X31487784Y67445502D02*
X30570268Y68383930D01*
X30331515Y68799920D02*
X29984049Y70065523D01*
X29976926Y70545106D02*
X30286655Y71820470D01*
X30512950Y72243366D02*
X31402193Y73208628D01*
X31805149Y73468775D02*
X33050885Y73881846D01*
X33528000Y73914000D02*
X33528000Y74422000D01*
D11*
X30830611Y26530420D02*
X30830611Y27630420D01*
X30830611Y27630420D02*
X30568706Y27630420D01*
X30568706Y27630420D02*
X30411563Y27578039D01*
X30411563Y27578039D02*
X30306801Y27473277D01*
X30306801Y27473277D02*
X30254420Y27368515D01*
X30254420Y27368515D02*
X30202039Y27158991D01*
X30202039Y27158991D02*
X30202039Y27001848D01*
X30202039Y27001848D02*
X30254420Y26792324D01*
X30254420Y26792324D02*
X30306801Y26687562D01*
X30306801Y26687562D02*
X30411563Y26582800D01*
X30411563Y26582800D02*
X30568706Y26530420D01*
X30568706Y26530420D02*
X30830611Y26530420D01*
X29311563Y26582800D02*
X29416325Y26530420D01*
X29416325Y26530420D02*
X29625849Y26530420D01*
X29625849Y26530420D02*
X29730611Y26582800D01*
X29730611Y26582800D02*
X29782992Y26687562D01*
X29782992Y26687562D02*
X29782992Y27106610D01*
X29782992Y27106610D02*
X29730611Y27211372D01*
X29730611Y27211372D02*
X29625849Y27263753D01*
X29625849Y27263753D02*
X29416325Y27263753D01*
X29416325Y27263753D02*
X29311563Y27211372D01*
X29311563Y27211372D02*
X29259182Y27106610D01*
X29259182Y27106610D02*
X29259182Y27001848D01*
X29259182Y27001848D02*
X29782992Y26897086D01*
X28840135Y26582800D02*
X28735373Y26530420D01*
X28735373Y26530420D02*
X28525849Y26530420D01*
X28525849Y26530420D02*
X28421087Y26582800D01*
X28421087Y26582800D02*
X28368706Y26687562D01*
X28368706Y26687562D02*
X28368706Y26739943D01*
X28368706Y26739943D02*
X28421087Y26844705D01*
X28421087Y26844705D02*
X28525849Y26897086D01*
X28525849Y26897086D02*
X28682992Y26897086D01*
X28682992Y26897086D02*
X28787754Y26949467D01*
X28787754Y26949467D02*
X28840135Y27054229D01*
X28840135Y27054229D02*
X28840135Y27106610D01*
X28840135Y27106610D02*
X28787754Y27211372D01*
X28787754Y27211372D02*
X28682992Y27263753D01*
X28682992Y27263753D02*
X28525849Y27263753D01*
X28525849Y27263753D02*
X28421087Y27211372D01*
X27897278Y26530420D02*
X27897278Y27630420D01*
X27792516Y26949467D02*
X27478230Y26530420D01*
X27478230Y27263753D02*
X27897278Y26844705D01*
X27006802Y26530420D02*
X27006802Y27630420D01*
X27006802Y27106610D02*
X26378230Y27106610D01*
X26378230Y26530420D02*
X26378230Y27630420D01*
X25697278Y26530420D02*
X25802040Y26582800D01*
X25802040Y26582800D02*
X25854421Y26635181D01*
X25854421Y26635181D02*
X25906802Y26739943D01*
X25906802Y26739943D02*
X25906802Y27054229D01*
X25906802Y27054229D02*
X25854421Y27158991D01*
X25854421Y27158991D02*
X25802040Y27211372D01*
X25802040Y27211372D02*
X25697278Y27263753D01*
X25697278Y27263753D02*
X25540135Y27263753D01*
X25540135Y27263753D02*
X25435373Y27211372D01*
X25435373Y27211372D02*
X25382992Y27158991D01*
X25382992Y27158991D02*
X25330611Y27054229D01*
X25330611Y27054229D02*
X25330611Y26739943D01*
X25330611Y26739943D02*
X25382992Y26635181D01*
X25382992Y26635181D02*
X25435373Y26582800D01*
X25435373Y26582800D02*
X25540135Y26530420D01*
X25540135Y26530420D02*
X25697278Y26530420D01*
X24859183Y27263753D02*
X24859183Y26163753D01*
X24859183Y27211372D02*
X24754421Y27263753D01*
X24754421Y27263753D02*
X24544897Y27263753D01*
X24544897Y27263753D02*
X24440135Y27211372D01*
X24440135Y27211372D02*
X24387754Y27158991D01*
X24387754Y27158991D02*
X24335373Y27054229D01*
X24335373Y27054229D02*
X24335373Y26739943D01*
X24335373Y26739943D02*
X24387754Y26635181D01*
X24387754Y26635181D02*
X24440135Y26582800D01*
X24440135Y26582800D02*
X24544897Y26530420D01*
X24544897Y26530420D02*
X24754421Y26530420D01*
X24754421Y26530420D02*
X24859183Y26582800D01*
X23025850Y26949467D02*
X22187755Y26949467D01*
X20825850Y26530420D02*
X20825850Y27630420D01*
X20197278Y26530420D02*
X20668707Y27158991D01*
X20197278Y27630420D02*
X20825850Y27001848D01*
X19306802Y26582800D02*
X19411564Y26530420D01*
X19411564Y26530420D02*
X19621088Y26530420D01*
X19621088Y26530420D02*
X19725850Y26582800D01*
X19725850Y26582800D02*
X19778231Y26687562D01*
X19778231Y26687562D02*
X19778231Y27106610D01*
X19778231Y27106610D02*
X19725850Y27211372D01*
X19725850Y27211372D02*
X19621088Y27263753D01*
X19621088Y27263753D02*
X19411564Y27263753D01*
X19411564Y27263753D02*
X19306802Y27211372D01*
X19306802Y27211372D02*
X19254421Y27106610D01*
X19254421Y27106610D02*
X19254421Y27001848D01*
X19254421Y27001848D02*
X19778231Y26897086D01*
X18887755Y27263753D02*
X18625850Y26530420D01*
X18363945Y27263753D02*
X18625850Y26530420D01*
X18625850Y26530420D02*
X18730612Y26268515D01*
X18730612Y26268515D02*
X18782993Y26216134D01*
X18782993Y26216134D02*
X18887755Y26163753D01*
X17944898Y26530420D02*
X17944898Y27630420D01*
X17944898Y27211372D02*
X17840136Y27263753D01*
X17840136Y27263753D02*
X17630612Y27263753D01*
X17630612Y27263753D02*
X17525850Y27211372D01*
X17525850Y27211372D02*
X17473469Y27158991D01*
X17473469Y27158991D02*
X17421088Y27054229D01*
X17421088Y27054229D02*
X17421088Y26739943D01*
X17421088Y26739943D02*
X17473469Y26635181D01*
X17473469Y26635181D02*
X17525850Y26582800D01*
X17525850Y26582800D02*
X17630612Y26530420D01*
X17630612Y26530420D02*
X17840136Y26530420D01*
X17840136Y26530420D02*
X17944898Y26582800D01*
X16792517Y26530420D02*
X16897279Y26582800D01*
X16897279Y26582800D02*
X16949660Y26635181D01*
X16949660Y26635181D02*
X17002041Y26739943D01*
X17002041Y26739943D02*
X17002041Y27054229D01*
X17002041Y27054229D02*
X16949660Y27158991D01*
X16949660Y27158991D02*
X16897279Y27211372D01*
X16897279Y27211372D02*
X16792517Y27263753D01*
X16792517Y27263753D02*
X16635374Y27263753D01*
X16635374Y27263753D02*
X16530612Y27211372D01*
X16530612Y27211372D02*
X16478231Y27158991D01*
X16478231Y27158991D02*
X16425850Y27054229D01*
X16425850Y27054229D02*
X16425850Y26739943D01*
X16425850Y26739943D02*
X16478231Y26635181D01*
X16478231Y26635181D02*
X16530612Y26582800D01*
X16530612Y26582800D02*
X16635374Y26530420D01*
X16635374Y26530420D02*
X16792517Y26530420D01*
X15482993Y26530420D02*
X15482993Y27106610D01*
X15482993Y27106610D02*
X15535374Y27211372D01*
X15535374Y27211372D02*
X15640136Y27263753D01*
X15640136Y27263753D02*
X15849660Y27263753D01*
X15849660Y27263753D02*
X15954422Y27211372D01*
X15482993Y26582800D02*
X15587755Y26530420D01*
X15587755Y26530420D02*
X15849660Y26530420D01*
X15849660Y26530420D02*
X15954422Y26582800D01*
X15954422Y26582800D02*
X16006803Y26687562D01*
X16006803Y26687562D02*
X16006803Y26792324D01*
X16006803Y26792324D02*
X15954422Y26897086D01*
X15954422Y26897086D02*
X15849660Y26949467D01*
X15849660Y26949467D02*
X15587755Y26949467D01*
X15587755Y26949467D02*
X15482993Y27001848D01*
X14959184Y26530420D02*
X14959184Y27263753D01*
X14959184Y27054229D02*
X14906803Y27158991D01*
X14906803Y27158991D02*
X14854422Y27211372D01*
X14854422Y27211372D02*
X14749660Y27263753D01*
X14749660Y27263753D02*
X14644898Y27263753D01*
X13806803Y26530420D02*
X13806803Y27630420D01*
X13806803Y26582800D02*
X13911565Y26530420D01*
X13911565Y26530420D02*
X14121089Y26530420D01*
X14121089Y26530420D02*
X14225851Y26582800D01*
X14225851Y26582800D02*
X14278232Y26635181D01*
X14278232Y26635181D02*
X14330613Y26739943D01*
X14330613Y26739943D02*
X14330613Y27054229D01*
X14330613Y27054229D02*
X14278232Y27158991D01*
X14278232Y27158991D02*
X14225851Y27211372D01*
X14225851Y27211372D02*
X14121089Y27263753D01*
X14121089Y27263753D02*
X13911565Y27263753D01*
X13911565Y27263753D02*
X13806803Y27211372D01*
X12497279Y27682800D02*
X13440137Y26268515D01*
X12130613Y26530420D02*
X12130613Y27630420D01*
X12130613Y27630420D02*
X11763946Y26844705D01*
X11763946Y26844705D02*
X11397279Y27630420D01*
X11397279Y27630420D02*
X11397279Y26530420D01*
X10716327Y26530420D02*
X10821089Y26582800D01*
X10821089Y26582800D02*
X10873470Y26635181D01*
X10873470Y26635181D02*
X10925851Y26739943D01*
X10925851Y26739943D02*
X10925851Y27054229D01*
X10925851Y27054229D02*
X10873470Y27158991D01*
X10873470Y27158991D02*
X10821089Y27211372D01*
X10821089Y27211372D02*
X10716327Y27263753D01*
X10716327Y27263753D02*
X10559184Y27263753D01*
X10559184Y27263753D02*
X10454422Y27211372D01*
X10454422Y27211372D02*
X10402041Y27158991D01*
X10402041Y27158991D02*
X10349660Y27054229D01*
X10349660Y27054229D02*
X10349660Y26739943D01*
X10349660Y26739943D02*
X10402041Y26635181D01*
X10402041Y26635181D02*
X10454422Y26582800D01*
X10454422Y26582800D02*
X10559184Y26530420D01*
X10559184Y26530420D02*
X10716327Y26530420D01*
X9406803Y27263753D02*
X9406803Y26530420D01*
X9878232Y27263753D02*
X9878232Y26687562D01*
X9878232Y26687562D02*
X9825851Y26582800D01*
X9825851Y26582800D02*
X9721089Y26530420D01*
X9721089Y26530420D02*
X9563946Y26530420D01*
X9563946Y26530420D02*
X9459184Y26582800D01*
X9459184Y26582800D02*
X9406803Y26635181D01*
X8935375Y26582800D02*
X8830613Y26530420D01*
X8830613Y26530420D02*
X8621089Y26530420D01*
X8621089Y26530420D02*
X8516327Y26582800D01*
X8516327Y26582800D02*
X8463946Y26687562D01*
X8463946Y26687562D02*
X8463946Y26739943D01*
X8463946Y26739943D02*
X8516327Y26844705D01*
X8516327Y26844705D02*
X8621089Y26897086D01*
X8621089Y26897086D02*
X8778232Y26897086D01*
X8778232Y26897086D02*
X8882994Y26949467D01*
X8882994Y26949467D02*
X8935375Y27054229D01*
X8935375Y27054229D02*
X8935375Y27106610D01*
X8935375Y27106610D02*
X8882994Y27211372D01*
X8882994Y27211372D02*
X8778232Y27263753D01*
X8778232Y27263753D02*
X8621089Y27263753D01*
X8621089Y27263753D02*
X8516327Y27211372D01*
X7573470Y26582800D02*
X7678232Y26530420D01*
X7678232Y26530420D02*
X7887756Y26530420D01*
X7887756Y26530420D02*
X7992518Y26582800D01*
X7992518Y26582800D02*
X8044899Y26687562D01*
X8044899Y26687562D02*
X8044899Y27106610D01*
X8044899Y27106610D02*
X7992518Y27211372D01*
X7992518Y27211372D02*
X7887756Y27263753D01*
X7887756Y27263753D02*
X7678232Y27263753D01*
X7678232Y27263753D02*
X7573470Y27211372D01*
X7573470Y27211372D02*
X7521089Y27106610D01*
X7521089Y27106610D02*
X7521089Y27001848D01*
X7521089Y27001848D02*
X8044899Y26897086D01*
X6263947Y26582800D02*
X6106804Y26530420D01*
X6106804Y26530420D02*
X5844899Y26530420D01*
X5844899Y26530420D02*
X5740137Y26582800D01*
X5740137Y26582800D02*
X5687756Y26635181D01*
X5687756Y26635181D02*
X5635375Y26739943D01*
X5635375Y26739943D02*
X5635375Y26844705D01*
X5635375Y26844705D02*
X5687756Y26949467D01*
X5687756Y26949467D02*
X5740137Y27001848D01*
X5740137Y27001848D02*
X5844899Y27054229D01*
X5844899Y27054229D02*
X6054423Y27106610D01*
X6054423Y27106610D02*
X6159185Y27158991D01*
X6159185Y27158991D02*
X6211566Y27211372D01*
X6211566Y27211372D02*
X6263947Y27316134D01*
X6263947Y27316134D02*
X6263947Y27420896D01*
X6263947Y27420896D02*
X6211566Y27525658D01*
X6211566Y27525658D02*
X6159185Y27578039D01*
X6159185Y27578039D02*
X6054423Y27630420D01*
X6054423Y27630420D02*
X5792518Y27630420D01*
X5792518Y27630420D02*
X5635375Y27578039D01*
X5268709Y27263753D02*
X5059185Y26530420D01*
X5059185Y26530420D02*
X4849661Y27054229D01*
X4849661Y27054229D02*
X4640137Y26530420D01*
X4640137Y26530420D02*
X4430613Y27263753D01*
X4011566Y26530420D02*
X4011566Y27263753D01*
X4011566Y27630420D02*
X4063947Y27578039D01*
X4063947Y27578039D02*
X4011566Y27525658D01*
X4011566Y27525658D02*
X3959185Y27578039D01*
X3959185Y27578039D02*
X4011566Y27630420D01*
X4011566Y27630420D02*
X4011566Y27525658D01*
X3644899Y27263753D02*
X3225851Y27263753D01*
X3487756Y27630420D02*
X3487756Y26687562D01*
X3487756Y26687562D02*
X3435375Y26582800D01*
X3435375Y26582800D02*
X3330613Y26530420D01*
X3330613Y26530420D02*
X3225851Y26530420D01*
X2387756Y26582800D02*
X2492518Y26530420D01*
X2492518Y26530420D02*
X2702042Y26530420D01*
X2702042Y26530420D02*
X2806804Y26582800D01*
X2806804Y26582800D02*
X2859185Y26635181D01*
X2859185Y26635181D02*
X2911566Y26739943D01*
X2911566Y26739943D02*
X2911566Y27054229D01*
X2911566Y27054229D02*
X2859185Y27158991D01*
X2859185Y27158991D02*
X2806804Y27211372D01*
X2806804Y27211372D02*
X2702042Y27263753D01*
X2702042Y27263753D02*
X2492518Y27263753D01*
X2492518Y27263753D02*
X2387756Y27211372D01*
X1916328Y26530420D02*
X1916328Y27630420D01*
X1444899Y26530420D02*
X1444899Y27106610D01*
X1444899Y27106610D02*
X1497280Y27211372D01*
X1497280Y27211372D02*
X1602042Y27263753D01*
X1602042Y27263753D02*
X1759185Y27263753D01*
X1759185Y27263753D02*
X1863947Y27211372D01*
X1863947Y27211372D02*
X1916328Y27158991D01*
X30830611Y22988420D02*
X30830611Y24088420D01*
X30830611Y23669372D02*
X30725849Y23721753D01*
X30725849Y23721753D02*
X30516325Y23721753D01*
X30516325Y23721753D02*
X30411563Y23669372D01*
X30411563Y23669372D02*
X30359182Y23616991D01*
X30359182Y23616991D02*
X30306801Y23512229D01*
X30306801Y23512229D02*
X30306801Y23197943D01*
X30306801Y23197943D02*
X30359182Y23093181D01*
X30359182Y23093181D02*
X30411563Y23040800D01*
X30411563Y23040800D02*
X30516325Y22988420D01*
X30516325Y22988420D02*
X30725849Y22988420D01*
X30725849Y22988420D02*
X30830611Y23040800D01*
X29940135Y23721753D02*
X29678230Y22988420D01*
X29416325Y23721753D02*
X29678230Y22988420D01*
X29678230Y22988420D02*
X29782992Y22726515D01*
X29782992Y22726515D02*
X29835373Y22674134D01*
X29835373Y22674134D02*
X29940135Y22621753D01*
X28159183Y22988420D02*
X28159183Y24088420D01*
X28159183Y23564610D02*
X27530611Y23564610D01*
X27530611Y22988420D02*
X27530611Y24088420D01*
X27006802Y22988420D02*
X27006802Y23721753D01*
X27006802Y23512229D02*
X26954421Y23616991D01*
X26954421Y23616991D02*
X26902040Y23669372D01*
X26902040Y23669372D02*
X26797278Y23721753D01*
X26797278Y23721753D02*
X26692516Y23721753D01*
X26430612Y23721753D02*
X26168707Y22988420D01*
X26168707Y22988420D02*
X25906802Y23721753D01*
X25330612Y22988420D02*
X25435374Y23040800D01*
X25435374Y23040800D02*
X25487755Y23093181D01*
X25487755Y23093181D02*
X25540136Y23197943D01*
X25540136Y23197943D02*
X25540136Y23512229D01*
X25540136Y23512229D02*
X25487755Y23616991D01*
X25487755Y23616991D02*
X25435374Y23669372D01*
X25435374Y23669372D02*
X25330612Y23721753D01*
X25330612Y23721753D02*
X25173469Y23721753D01*
X25173469Y23721753D02*
X25068707Y23669372D01*
X25068707Y23669372D02*
X25016326Y23616991D01*
X25016326Y23616991D02*
X24963945Y23512229D01*
X24963945Y23512229D02*
X24963945Y23197943D01*
X24963945Y23197943D02*
X25016326Y23093181D01*
X25016326Y23093181D02*
X25068707Y23040800D01*
X25068707Y23040800D02*
X25173469Y22988420D01*
X25173469Y22988420D02*
X25330612Y22988420D01*
X24492517Y23721753D02*
X24492517Y22778896D01*
X24492517Y22778896D02*
X24544898Y22674134D01*
X24544898Y22674134D02*
X24649660Y22621753D01*
X24649660Y22621753D02*
X24702041Y22621753D01*
X24492517Y24088420D02*
X24544898Y24036039D01*
X24544898Y24036039D02*
X24492517Y23983658D01*
X24492517Y23983658D02*
X24440136Y24036039D01*
X24440136Y24036039D02*
X24492517Y24088420D01*
X24492517Y24088420D02*
X24492517Y23983658D01*
X23549659Y23040800D02*
X23654421Y22988420D01*
X23654421Y22988420D02*
X23863945Y22988420D01*
X23863945Y22988420D02*
X23968707Y23040800D01*
X23968707Y23040800D02*
X24021088Y23145562D01*
X24021088Y23145562D02*
X24021088Y23564610D01*
X24021088Y23564610D02*
X23968707Y23669372D01*
X23968707Y23669372D02*
X23863945Y23721753D01*
X23863945Y23721753D02*
X23654421Y23721753D01*
X23654421Y23721753D02*
X23549659Y23669372D01*
X23549659Y23669372D02*
X23497278Y23564610D01*
X23497278Y23564610D02*
X23497278Y23459848D01*
X23497278Y23459848D02*
X24021088Y23355086D01*
X21559183Y23093181D02*
X21611564Y23040800D01*
X21611564Y23040800D02*
X21768707Y22988420D01*
X21768707Y22988420D02*
X21873469Y22988420D01*
X21873469Y22988420D02*
X22030612Y23040800D01*
X22030612Y23040800D02*
X22135374Y23145562D01*
X22135374Y23145562D02*
X22187755Y23250324D01*
X22187755Y23250324D02*
X22240136Y23459848D01*
X22240136Y23459848D02*
X22240136Y23616991D01*
X22240136Y23616991D02*
X22187755Y23826515D01*
X22187755Y23826515D02*
X22135374Y23931277D01*
X22135374Y23931277D02*
X22030612Y24036039D01*
X22030612Y24036039D02*
X21873469Y24088420D01*
X21873469Y24088420D02*
X21768707Y24088420D01*
X21768707Y24088420D02*
X21611564Y24036039D01*
X21611564Y24036039D02*
X21559183Y23983658D01*
X20616326Y22988420D02*
X20616326Y23564610D01*
X20616326Y23564610D02*
X20668707Y23669372D01*
X20668707Y23669372D02*
X20773469Y23721753D01*
X20773469Y23721753D02*
X20982993Y23721753D01*
X20982993Y23721753D02*
X21087755Y23669372D01*
X20616326Y23040800D02*
X20721088Y22988420D01*
X20721088Y22988420D02*
X20982993Y22988420D01*
X20982993Y22988420D02*
X21087755Y23040800D01*
X21087755Y23040800D02*
X21140136Y23145562D01*
X21140136Y23145562D02*
X21140136Y23250324D01*
X21140136Y23250324D02*
X21087755Y23355086D01*
X21087755Y23355086D02*
X20982993Y23407467D01*
X20982993Y23407467D02*
X20721088Y23407467D01*
X20721088Y23407467D02*
X20616326Y23459848D01*
X20197279Y23721753D02*
X19935374Y22988420D01*
X19935374Y22988420D02*
X19673469Y23721753D01*
X19254422Y22988420D02*
X19254422Y23721753D01*
X19254422Y23512229D02*
X19202041Y23616991D01*
X19202041Y23616991D02*
X19149660Y23669372D01*
X19149660Y23669372D02*
X19044898Y23721753D01*
X19044898Y23721753D02*
X18940136Y23721753D01*
X18102041Y22988420D02*
X18102041Y23564610D01*
X18102041Y23564610D02*
X18154422Y23669372D01*
X18154422Y23669372D02*
X18259184Y23721753D01*
X18259184Y23721753D02*
X18468708Y23721753D01*
X18468708Y23721753D02*
X18573470Y23669372D01*
X18102041Y23040800D02*
X18206803Y22988420D01*
X18206803Y22988420D02*
X18468708Y22988420D01*
X18468708Y22988420D02*
X18573470Y23040800D01*
X18573470Y23040800D02*
X18625851Y23145562D01*
X18625851Y23145562D02*
X18625851Y23250324D01*
X18625851Y23250324D02*
X18573470Y23355086D01*
X18573470Y23355086D02*
X18468708Y23407467D01*
X18468708Y23407467D02*
X18206803Y23407467D01*
X18206803Y23407467D02*
X18102041Y23459848D01*
X17578232Y22988420D02*
X17578232Y24088420D01*
X17473470Y23407467D02*
X17159184Y22988420D01*
X17159184Y23721753D02*
X17578232Y23302705D01*
X16635375Y23040800D02*
X16635375Y22988420D01*
X16635375Y22988420D02*
X16687756Y22883658D01*
X16687756Y22883658D02*
X16740137Y22831277D01*
X14749660Y22988420D02*
X15378232Y22988420D01*
X15063946Y22988420D02*
X15063946Y24088420D01*
X15063946Y24088420D02*
X15168708Y23931277D01*
X15168708Y23931277D02*
X15273470Y23826515D01*
X15273470Y23826515D02*
X15378232Y23774134D01*
X14330613Y23983658D02*
X14278232Y24036039D01*
X14278232Y24036039D02*
X14173470Y24088420D01*
X14173470Y24088420D02*
X13911565Y24088420D01*
X13911565Y24088420D02*
X13806803Y24036039D01*
X13806803Y24036039D02*
X13754422Y23983658D01*
X13754422Y23983658D02*
X13702041Y23878896D01*
X13702041Y23878896D02*
X13702041Y23774134D01*
X13702041Y23774134D02*
X13754422Y23616991D01*
X13754422Y23616991D02*
X14382994Y22988420D01*
X14382994Y22988420D02*
X13702041Y22988420D01*
X12444898Y24140800D02*
X13387756Y22726515D01*
X12130613Y23983658D02*
X12078232Y24036039D01*
X12078232Y24036039D02*
X11973470Y24088420D01*
X11973470Y24088420D02*
X11711565Y24088420D01*
X11711565Y24088420D02*
X11606803Y24036039D01*
X11606803Y24036039D02*
X11554422Y23983658D01*
X11554422Y23983658D02*
X11502041Y23878896D01*
X11502041Y23878896D02*
X11502041Y23774134D01*
X11502041Y23774134D02*
X11554422Y23616991D01*
X11554422Y23616991D02*
X12182994Y22988420D01*
X12182994Y22988420D02*
X11502041Y22988420D01*
X10821089Y24088420D02*
X10716327Y24088420D01*
X10716327Y24088420D02*
X10611565Y24036039D01*
X10611565Y24036039D02*
X10559184Y23983658D01*
X10559184Y23983658D02*
X10506803Y23878896D01*
X10506803Y23878896D02*
X10454422Y23669372D01*
X10454422Y23669372D02*
X10454422Y23407467D01*
X10454422Y23407467D02*
X10506803Y23197943D01*
X10506803Y23197943D02*
X10559184Y23093181D01*
X10559184Y23093181D02*
X10611565Y23040800D01*
X10611565Y23040800D02*
X10716327Y22988420D01*
X10716327Y22988420D02*
X10821089Y22988420D01*
X10821089Y22988420D02*
X10925851Y23040800D01*
X10925851Y23040800D02*
X10978232Y23093181D01*
X10978232Y23093181D02*
X11030613Y23197943D01*
X11030613Y23197943D02*
X11082994Y23407467D01*
X11082994Y23407467D02*
X11082994Y23669372D01*
X11082994Y23669372D02*
X11030613Y23878896D01*
X11030613Y23878896D02*
X10978232Y23983658D01*
X10978232Y23983658D02*
X10925851Y24036039D01*
X10925851Y24036039D02*
X10821089Y24088420D01*
X10035375Y23983658D02*
X9982994Y24036039D01*
X9982994Y24036039D02*
X9878232Y24088420D01*
X9878232Y24088420D02*
X9616327Y24088420D01*
X9616327Y24088420D02*
X9511565Y24036039D01*
X9511565Y24036039D02*
X9459184Y23983658D01*
X9459184Y23983658D02*
X9406803Y23878896D01*
X9406803Y23878896D02*
X9406803Y23774134D01*
X9406803Y23774134D02*
X9459184Y23616991D01*
X9459184Y23616991D02*
X10087756Y22988420D01*
X10087756Y22988420D02*
X9406803Y22988420D01*
X9040137Y24088420D02*
X8359184Y24088420D01*
X8359184Y24088420D02*
X8725851Y23669372D01*
X8725851Y23669372D02*
X8568708Y23669372D01*
X8568708Y23669372D02*
X8463946Y23616991D01*
X8463946Y23616991D02*
X8411565Y23564610D01*
X8411565Y23564610D02*
X8359184Y23459848D01*
X8359184Y23459848D02*
X8359184Y23197943D01*
X8359184Y23197943D02*
X8411565Y23093181D01*
X8411565Y23093181D02*
X8463946Y23040800D01*
X8463946Y23040800D02*
X8568708Y22988420D01*
X8568708Y22988420D02*
X8882994Y22988420D01*
X8882994Y22988420D02*
X8987756Y23040800D01*
X8987756Y23040800D02*
X9040137Y23093181D01*
X30830611Y19446420D02*
X30830611Y20546420D01*
X30359182Y19446420D02*
X30359182Y20022610D01*
X30359182Y20022610D02*
X30411563Y20127372D01*
X30411563Y20127372D02*
X30516325Y20179753D01*
X30516325Y20179753D02*
X30673468Y20179753D01*
X30673468Y20179753D02*
X30778230Y20127372D01*
X30778230Y20127372D02*
X30830611Y20074991D01*
X29992516Y20179753D02*
X29573468Y20179753D01*
X29835373Y20546420D02*
X29835373Y19603562D01*
X29835373Y19603562D02*
X29782992Y19498800D01*
X29782992Y19498800D02*
X29678230Y19446420D01*
X29678230Y19446420D02*
X29573468Y19446420D01*
X29363945Y20179753D02*
X28944897Y20179753D01*
X29206802Y20546420D02*
X29206802Y19603562D01*
X29206802Y19603562D02*
X29154421Y19498800D01*
X29154421Y19498800D02*
X29049659Y19446420D01*
X29049659Y19446420D02*
X28944897Y19446420D01*
X28578231Y20179753D02*
X28578231Y19079753D01*
X28578231Y20127372D02*
X28473469Y20179753D01*
X28473469Y20179753D02*
X28263945Y20179753D01*
X28263945Y20179753D02*
X28159183Y20127372D01*
X28159183Y20127372D02*
X28106802Y20074991D01*
X28106802Y20074991D02*
X28054421Y19970229D01*
X28054421Y19970229D02*
X28054421Y19655943D01*
X28054421Y19655943D02*
X28106802Y19551181D01*
X28106802Y19551181D02*
X28159183Y19498800D01*
X28159183Y19498800D02*
X28263945Y19446420D01*
X28263945Y19446420D02*
X28473469Y19446420D01*
X28473469Y19446420D02*
X28578231Y19498800D01*
X27635374Y19498800D02*
X27530612Y19446420D01*
X27530612Y19446420D02*
X27321088Y19446420D01*
X27321088Y19446420D02*
X27216326Y19498800D01*
X27216326Y19498800D02*
X27163945Y19603562D01*
X27163945Y19603562D02*
X27163945Y19655943D01*
X27163945Y19655943D02*
X27216326Y19760705D01*
X27216326Y19760705D02*
X27321088Y19813086D01*
X27321088Y19813086D02*
X27478231Y19813086D01*
X27478231Y19813086D02*
X27582993Y19865467D01*
X27582993Y19865467D02*
X27635374Y19970229D01*
X27635374Y19970229D02*
X27635374Y20022610D01*
X27635374Y20022610D02*
X27582993Y20127372D01*
X27582993Y20127372D02*
X27478231Y20179753D01*
X27478231Y20179753D02*
X27321088Y20179753D01*
X27321088Y20179753D02*
X27216326Y20127372D01*
X26692517Y19551181D02*
X26640136Y19498800D01*
X26640136Y19498800D02*
X26692517Y19446420D01*
X26692517Y19446420D02*
X26744898Y19498800D01*
X26744898Y19498800D02*
X26692517Y19551181D01*
X26692517Y19551181D02*
X26692517Y19446420D01*
X26692517Y20127372D02*
X26640136Y20074991D01*
X26640136Y20074991D02*
X26692517Y20022610D01*
X26692517Y20022610D02*
X26744898Y20074991D01*
X26744898Y20074991D02*
X26692517Y20127372D01*
X26692517Y20127372D02*
X26692517Y20022610D01*
X25382992Y20598800D02*
X26325850Y19184515D01*
X24230611Y20598800D02*
X25173469Y19184515D01*
X23392516Y20179753D02*
X23392516Y19289277D01*
X23392516Y19289277D02*
X23444897Y19184515D01*
X23444897Y19184515D02*
X23497278Y19132134D01*
X23497278Y19132134D02*
X23602040Y19079753D01*
X23602040Y19079753D02*
X23759183Y19079753D01*
X23759183Y19079753D02*
X23863945Y19132134D01*
X23392516Y19498800D02*
X23497278Y19446420D01*
X23497278Y19446420D02*
X23706802Y19446420D01*
X23706802Y19446420D02*
X23811564Y19498800D01*
X23811564Y19498800D02*
X23863945Y19551181D01*
X23863945Y19551181D02*
X23916326Y19655943D01*
X23916326Y19655943D02*
X23916326Y19970229D01*
X23916326Y19970229D02*
X23863945Y20074991D01*
X23863945Y20074991D02*
X23811564Y20127372D01*
X23811564Y20127372D02*
X23706802Y20179753D01*
X23706802Y20179753D02*
X23497278Y20179753D01*
X23497278Y20179753D02*
X23392516Y20127372D01*
X22868707Y19446420D02*
X22868707Y20179753D01*
X22868707Y20546420D02*
X22921088Y20494039D01*
X22921088Y20494039D02*
X22868707Y20441658D01*
X22868707Y20441658D02*
X22816326Y20494039D01*
X22816326Y20494039D02*
X22868707Y20546420D01*
X22868707Y20546420D02*
X22868707Y20441658D01*
X22502040Y20179753D02*
X22082992Y20179753D01*
X22344897Y20546420D02*
X22344897Y19603562D01*
X22344897Y19603562D02*
X22292516Y19498800D01*
X22292516Y19498800D02*
X22187754Y19446420D01*
X22187754Y19446420D02*
X22082992Y19446420D01*
X21716326Y19446420D02*
X21716326Y20546420D01*
X21244897Y19446420D02*
X21244897Y20022610D01*
X21244897Y20022610D02*
X21297278Y20127372D01*
X21297278Y20127372D02*
X21402040Y20179753D01*
X21402040Y20179753D02*
X21559183Y20179753D01*
X21559183Y20179753D02*
X21663945Y20127372D01*
X21663945Y20127372D02*
X21716326Y20074991D01*
X20249659Y20179753D02*
X20249659Y19446420D01*
X20721088Y20179753D02*
X20721088Y19603562D01*
X20721088Y19603562D02*
X20668707Y19498800D01*
X20668707Y19498800D02*
X20563945Y19446420D01*
X20563945Y19446420D02*
X20406802Y19446420D01*
X20406802Y19446420D02*
X20302040Y19498800D01*
X20302040Y19498800D02*
X20249659Y19551181D01*
X19725850Y19446420D02*
X19725850Y20546420D01*
X19725850Y20127372D02*
X19621088Y20179753D01*
X19621088Y20179753D02*
X19411564Y20179753D01*
X19411564Y20179753D02*
X19306802Y20127372D01*
X19306802Y20127372D02*
X19254421Y20074991D01*
X19254421Y20074991D02*
X19202040Y19970229D01*
X19202040Y19970229D02*
X19202040Y19655943D01*
X19202040Y19655943D02*
X19254421Y19551181D01*
X19254421Y19551181D02*
X19306802Y19498800D01*
X19306802Y19498800D02*
X19411564Y19446420D01*
X19411564Y19446420D02*
X19621088Y19446420D01*
X19621088Y19446420D02*
X19725850Y19498800D01*
X18730612Y19551181D02*
X18678231Y19498800D01*
X18678231Y19498800D02*
X18730612Y19446420D01*
X18730612Y19446420D02*
X18782993Y19498800D01*
X18782993Y19498800D02*
X18730612Y19551181D01*
X18730612Y19551181D02*
X18730612Y19446420D01*
X17735373Y19498800D02*
X17840135Y19446420D01*
X17840135Y19446420D02*
X18049659Y19446420D01*
X18049659Y19446420D02*
X18154421Y19498800D01*
X18154421Y19498800D02*
X18206802Y19551181D01*
X18206802Y19551181D02*
X18259183Y19655943D01*
X18259183Y19655943D02*
X18259183Y19970229D01*
X18259183Y19970229D02*
X18206802Y20074991D01*
X18206802Y20074991D02*
X18154421Y20127372D01*
X18154421Y20127372D02*
X18049659Y20179753D01*
X18049659Y20179753D02*
X17840135Y20179753D01*
X17840135Y20179753D02*
X17735373Y20127372D01*
X17106802Y19446420D02*
X17211564Y19498800D01*
X17211564Y19498800D02*
X17263945Y19551181D01*
X17263945Y19551181D02*
X17316326Y19655943D01*
X17316326Y19655943D02*
X17316326Y19970229D01*
X17316326Y19970229D02*
X17263945Y20074991D01*
X17263945Y20074991D02*
X17211564Y20127372D01*
X17211564Y20127372D02*
X17106802Y20179753D01*
X17106802Y20179753D02*
X16949659Y20179753D01*
X16949659Y20179753D02*
X16844897Y20127372D01*
X16844897Y20127372D02*
X16792516Y20074991D01*
X16792516Y20074991D02*
X16740135Y19970229D01*
X16740135Y19970229D02*
X16740135Y19655943D01*
X16740135Y19655943D02*
X16792516Y19551181D01*
X16792516Y19551181D02*
X16844897Y19498800D01*
X16844897Y19498800D02*
X16949659Y19446420D01*
X16949659Y19446420D02*
X17106802Y19446420D01*
X16268707Y19446420D02*
X16268707Y20179753D01*
X16268707Y20074991D02*
X16216326Y20127372D01*
X16216326Y20127372D02*
X16111564Y20179753D01*
X16111564Y20179753D02*
X15954421Y20179753D01*
X15954421Y20179753D02*
X15849659Y20127372D01*
X15849659Y20127372D02*
X15797278Y20022610D01*
X15797278Y20022610D02*
X15797278Y19446420D01*
X15797278Y20022610D02*
X15744897Y20127372D01*
X15744897Y20127372D02*
X15640135Y20179753D01*
X15640135Y20179753D02*
X15482992Y20179753D01*
X15482992Y20179753D02*
X15378231Y20127372D01*
X15378231Y20127372D02*
X15325850Y20022610D01*
X15325850Y20022610D02*
X15325850Y19446420D01*
X14016325Y20598800D02*
X14959183Y19184515D01*
X13649659Y19446420D02*
X13649659Y20546420D01*
X13178230Y19446420D02*
X13178230Y20022610D01*
X13178230Y20022610D02*
X13230611Y20127372D01*
X13230611Y20127372D02*
X13335373Y20179753D01*
X13335373Y20179753D02*
X13492516Y20179753D01*
X13492516Y20179753D02*
X13597278Y20127372D01*
X13597278Y20127372D02*
X13649659Y20074991D01*
X12654421Y19446420D02*
X12654421Y20179753D01*
X12654421Y19970229D02*
X12602040Y20074991D01*
X12602040Y20074991D02*
X12549659Y20127372D01*
X12549659Y20127372D02*
X12444897Y20179753D01*
X12444897Y20179753D02*
X12340135Y20179753D01*
X12078231Y20179753D02*
X11816326Y19446420D01*
X11816326Y19446420D02*
X11554421Y20179753D01*
X10663945Y19446420D02*
X10663945Y20022610D01*
X10663945Y20022610D02*
X10716326Y20127372D01*
X10716326Y20127372D02*
X10821088Y20179753D01*
X10821088Y20179753D02*
X11030612Y20179753D01*
X11030612Y20179753D02*
X11135374Y20127372D01*
X10663945Y19498800D02*
X10768707Y19446420D01*
X10768707Y19446420D02*
X11030612Y19446420D01*
X11030612Y19446420D02*
X11135374Y19498800D01*
X11135374Y19498800D02*
X11187755Y19603562D01*
X11187755Y19603562D02*
X11187755Y19708324D01*
X11187755Y19708324D02*
X11135374Y19813086D01*
X11135374Y19813086D02*
X11030612Y19865467D01*
X11030612Y19865467D02*
X10768707Y19865467D01*
X10768707Y19865467D02*
X10663945Y19917848D01*
X9668707Y19498800D02*
X9773469Y19446420D01*
X9773469Y19446420D02*
X9982993Y19446420D01*
X9982993Y19446420D02*
X10087755Y19498800D01*
X10087755Y19498800D02*
X10140136Y19551181D01*
X10140136Y19551181D02*
X10192517Y19655943D01*
X10192517Y19655943D02*
X10192517Y19970229D01*
X10192517Y19970229D02*
X10140136Y20074991D01*
X10140136Y20074991D02*
X10087755Y20127372D01*
X10087755Y20127372D02*
X9982993Y20179753D01*
X9982993Y20179753D02*
X9773469Y20179753D01*
X9773469Y20179753D02*
X9668707Y20127372D01*
X9197279Y19446420D02*
X9197279Y20546420D01*
X8725850Y19446420D02*
X8725850Y20022610D01*
X8725850Y20022610D02*
X8778231Y20127372D01*
X8778231Y20127372D02*
X8882993Y20179753D01*
X8882993Y20179753D02*
X9040136Y20179753D01*
X9040136Y20179753D02*
X9144898Y20127372D01*
X9144898Y20127372D02*
X9197279Y20074991D01*
M02*
