%TF.GenerationSoftware,KiCad,Pcbnew,7.0.9*%
%TF.CreationDate,2024-02-17T13:50:42+09:00*%
%TF.ProjectId,DeskHop,4465736b-486f-4702-9e6b-696361645f70,rev?*%
%TF.SameCoordinates,PX20378f0PY6e37550*%
%TF.FileFunction,Paste,Top*%
%TF.FilePolarity,Positive*%
%FSLAX46Y46*%
G04 Gerber Fmt 4.6, Leading zero omitted, Abs format (unit mm)*
G04 Created by KiCad (PCBNEW 7.0.9) date 2024-02-17 13:50:42*
%MOMM*%
%LPD*%
G01*
G04 APERTURE LIST*
G04 Aperture macros list*
%AMRoundRect*
0 Rectangle with rounded corners*
0 $1 Rounding radius*
0 $2 $3 $4 $5 $6 $7 $8 $9 X,Y pos of 4 corners*
0 Add a 4 corners polygon primitive as box body*
4,1,4,$2,$3,$4,$5,$6,$7,$8,$9,$2,$3,0*
0 Add four circle primitives for the rounded corners*
1,1,$1+$1,$2,$3*
1,1,$1+$1,$4,$5*
1,1,$1+$1,$6,$7*
1,1,$1+$1,$8,$9*
0 Add four rect primitives between the rounded corners*
20,1,$1+$1,$2,$3,$4,$5,0*
20,1,$1+$1,$4,$5,$6,$7,0*
20,1,$1+$1,$6,$7,$8,$9,0*
20,1,$1+$1,$8,$9,$2,$3,0*%
G04 Aperture macros list end*
%ADD10C,0.100000*%
%ADD11RoundRect,0.250000X-0.412500X-0.650000X0.412500X-0.650000X0.412500X0.650000X-0.412500X0.650000X0*%
%ADD12RoundRect,0.150000X-0.825000X-0.150000X0.825000X-0.150000X0.825000X0.150000X-0.825000X0.150000X0*%
%ADD13RoundRect,0.250000X0.412500X0.650000X-0.412500X0.650000X-0.412500X-0.650000X0.412500X-0.650000X0*%
G04 APERTURE END LIST*
D10*
X26535381Y32001939D02*
X23233381Y32001939D01*
X23233381Y33525939D01*
X26535381Y33525939D01*
X26535381Y32001939D01*
G36*
X26535381Y32001939D02*
G01*
X23233381Y32001939D01*
X23233381Y33525939D01*
X26535381Y33525939D01*
X26535381Y32001939D01*
G37*
X62992000Y34544000D02*
X59690000Y34544000D01*
X59690000Y36068000D01*
X62992000Y36068000D01*
X62992000Y34544000D01*
G36*
X62992000Y34544000D02*
G01*
X59690000Y34544000D01*
X59690000Y36068000D01*
X62992000Y36068000D01*
X62992000Y34544000D01*
G37*
X26533734Y44744953D02*
X23231734Y44744953D01*
X23231734Y46268953D01*
X26533734Y46268953D01*
X26533734Y44744953D01*
G36*
X26533734Y44744953D02*
G01*
X23231734Y44744953D01*
X23231734Y46268953D01*
X26533734Y46268953D01*
X26533734Y44744953D01*
G37*
X6939244Y47287456D02*
X3637244Y47287456D01*
X3637244Y48811456D01*
X6939244Y48811456D01*
X6939244Y47287456D01*
G36*
X6939244Y47287456D02*
G01*
X3637244Y47287456D01*
X3637244Y48811456D01*
X6939244Y48811456D01*
X6939244Y47287456D01*
G37*
X43434000Y26924000D02*
X40132000Y26924000D01*
X40132000Y28448000D01*
X43434000Y28448000D01*
X43434000Y26924000D01*
G36*
X43434000Y26924000D02*
G01*
X40132000Y26924000D01*
X40132000Y28448000D01*
X43434000Y28448000D01*
X43434000Y26924000D01*
G37*
X6939244Y37127456D02*
X3637244Y37127456D01*
X3637244Y38651456D01*
X6939244Y38651456D01*
X6939244Y37127456D01*
G36*
X6939244Y37127456D02*
G01*
X3637244Y37127456D01*
X3637244Y38651456D01*
X6939244Y38651456D01*
X6939244Y37127456D01*
G37*
X6939244Y54907456D02*
X3637244Y54907456D01*
X3637244Y56431456D01*
X6939244Y56431456D01*
X6939244Y54907456D01*
G36*
X6939244Y54907456D02*
G01*
X3637244Y54907456D01*
X3637244Y56431456D01*
X6939244Y56431456D01*
X6939244Y54907456D01*
G37*
X62992000Y65024000D02*
X59690000Y65024000D01*
X59690000Y66548000D01*
X62992000Y66548000D01*
X62992000Y65024000D01*
G36*
X62992000Y65024000D02*
G01*
X59690000Y65024000D01*
X59690000Y66548000D01*
X62992000Y66548000D01*
X62992000Y65024000D01*
G37*
X62992000Y44704000D02*
X59690000Y44704000D01*
X59690000Y46228000D01*
X62992000Y46228000D01*
X62992000Y44704000D01*
G36*
X62992000Y44704000D02*
G01*
X59690000Y44704000D01*
X59690000Y46228000D01*
X62992000Y46228000D01*
X62992000Y44704000D01*
G37*
X43434000Y34544000D02*
X40132000Y34544000D01*
X40132000Y36068000D01*
X43434000Y36068000D01*
X43434000Y34544000D01*
G36*
X43434000Y34544000D02*
G01*
X40132000Y34544000D01*
X40132000Y36068000D01*
X43434000Y36068000D01*
X43434000Y34544000D01*
G37*
X62992000Y26924000D02*
X59690000Y26924000D01*
X59690000Y28448000D01*
X62992000Y28448000D01*
X62992000Y26924000D01*
G36*
X62992000Y26924000D02*
G01*
X59690000Y26924000D01*
X59690000Y28448000D01*
X62992000Y28448000D01*
X62992000Y26924000D01*
G37*
X26533734Y42204953D02*
X23231734Y42204953D01*
X23231734Y43728953D01*
X26533734Y43728953D01*
X26533734Y42204953D01*
G36*
X26533734Y42204953D02*
G01*
X23231734Y42204953D01*
X23231734Y43728953D01*
X26533734Y43728953D01*
X26533734Y42204953D01*
G37*
X62992000Y47244000D02*
X59690000Y47244000D01*
X59690000Y48768000D01*
X62992000Y48768000D01*
X62992000Y47244000D01*
G36*
X62992000Y47244000D02*
G01*
X59690000Y47244000D01*
X59690000Y48768000D01*
X62992000Y48768000D01*
X62992000Y47244000D01*
G37*
X26533734Y39664953D02*
X23231734Y39664953D01*
X23231734Y41188953D01*
X26533734Y41188953D01*
X26533734Y39664953D01*
G36*
X26533734Y39664953D02*
G01*
X23231734Y39664953D01*
X23231734Y41188953D01*
X26533734Y41188953D01*
X26533734Y39664953D01*
G37*
X62992000Y24384000D02*
X59690000Y24384000D01*
X59690000Y25908000D01*
X62992000Y25908000D01*
X62992000Y24384000D01*
G36*
X62992000Y24384000D02*
G01*
X59690000Y24384000D01*
X59690000Y25908000D01*
X62992000Y25908000D01*
X62992000Y24384000D01*
G37*
X15872297Y20320001D02*
X14348297Y20320001D01*
X14348297Y23622001D01*
X15872297Y23622001D01*
X15872297Y20320001D01*
G36*
X15872297Y20320001D02*
G01*
X14348297Y20320001D01*
X14348297Y23622001D01*
X15872297Y23622001D01*
X15872297Y20320001D01*
G37*
X6939244Y42207456D02*
X3637244Y42207456D01*
X3637244Y43731456D01*
X6939244Y43731456D01*
X6939244Y42207456D01*
G36*
X6939244Y42207456D02*
G01*
X3637244Y42207456D01*
X3637244Y43731456D01*
X6939244Y43731456D01*
X6939244Y42207456D01*
G37*
X43434000Y47244000D02*
X40132000Y47244000D01*
X40132000Y48768000D01*
X43434000Y48768000D01*
X43434000Y47244000D01*
G36*
X43434000Y47244000D02*
G01*
X40132000Y47244000D01*
X40132000Y48768000D01*
X43434000Y48768000D01*
X43434000Y47244000D01*
G37*
X62992000Y49784000D02*
X59690000Y49784000D01*
X59690000Y51308000D01*
X62992000Y51308000D01*
X62992000Y49784000D01*
G36*
X62992000Y49784000D02*
G01*
X59690000Y49784000D01*
X59690000Y51308000D01*
X62992000Y51308000D01*
X62992000Y49784000D01*
G37*
X62992000Y29464000D02*
X59690000Y29464000D01*
X59690000Y30988000D01*
X62992000Y30988000D01*
X62992000Y29464000D01*
G36*
X62992000Y29464000D02*
G01*
X59690000Y29464000D01*
X59690000Y30988000D01*
X62992000Y30988000D01*
X62992000Y29464000D01*
G37*
X26535381Y21841939D02*
X23233381Y21841939D01*
X23233381Y23365939D01*
X26535381Y23365939D01*
X26535381Y21841939D01*
G36*
X26535381Y21841939D02*
G01*
X23233381Y21841939D01*
X23233381Y23365939D01*
X26535381Y23365939D01*
X26535381Y21841939D01*
G37*
X43434000Y65024000D02*
X40132000Y65024000D01*
X40132000Y66548000D01*
X43434000Y66548000D01*
X43434000Y65024000D01*
G36*
X43434000Y65024000D02*
G01*
X40132000Y65024000D01*
X40132000Y66548000D01*
X43434000Y66548000D01*
X43434000Y65024000D01*
G37*
X62992000Y57404000D02*
X59690000Y57404000D01*
X59690000Y58928000D01*
X62992000Y58928000D01*
X62992000Y57404000D01*
G36*
X62992000Y57404000D02*
G01*
X59690000Y57404000D01*
X59690000Y58928000D01*
X62992000Y58928000D01*
X62992000Y57404000D01*
G37*
X6935563Y67599041D02*
X3633563Y67599041D01*
X3633563Y69123041D01*
X6935563Y69123041D01*
X6935563Y67599041D01*
G36*
X6935563Y67599041D02*
G01*
X3633563Y67599041D01*
X3633563Y69123041D01*
X6935563Y69123041D01*
X6935563Y67599041D01*
G37*
X43434000Y54864000D02*
X40132000Y54864000D01*
X40132000Y56388000D01*
X43434000Y56388000D01*
X43434000Y54864000D01*
G36*
X43434000Y54864000D02*
G01*
X40132000Y54864000D01*
X40132000Y56388000D01*
X43434000Y56388000D01*
X43434000Y54864000D01*
G37*
X43434000Y52324000D02*
X40132000Y52324000D01*
X40132000Y53848000D01*
X43434000Y53848000D01*
X43434000Y52324000D01*
G36*
X43434000Y52324000D02*
G01*
X40132000Y52324000D01*
X40132000Y53848000D01*
X43434000Y53848000D01*
X43434000Y52324000D01*
G37*
X26493563Y62519041D02*
X23191563Y62519041D01*
X23191563Y64043041D01*
X26493563Y64043041D01*
X26493563Y62519041D01*
G36*
X26493563Y62519041D02*
G01*
X23191563Y62519041D01*
X23191563Y64043041D01*
X26493563Y64043041D01*
X26493563Y62519041D01*
G37*
X43434000Y24384000D02*
X40132000Y24384000D01*
X40132000Y25908000D01*
X43434000Y25908000D01*
X43434000Y24384000D01*
G36*
X43434000Y24384000D02*
G01*
X40132000Y24384000D01*
X40132000Y25908000D01*
X43434000Y25908000D01*
X43434000Y24384000D01*
G37*
X49784000Y20320000D02*
X48260000Y20320000D01*
X48260000Y23622000D01*
X49784000Y23622000D01*
X49784000Y20320000D01*
G36*
X49784000Y20320000D02*
G01*
X48260000Y20320000D01*
X48260000Y23622000D01*
X49784000Y23622000D01*
X49784000Y20320000D01*
G37*
X62992000Y67564000D02*
X59690000Y67564000D01*
X59690000Y69088000D01*
X62992000Y69088000D01*
X62992000Y67564000D01*
G36*
X62992000Y67564000D02*
G01*
X59690000Y67564000D01*
X59690000Y69088000D01*
X62992000Y69088000D01*
X62992000Y67564000D01*
G37*
X6939244Y34587456D02*
X3637244Y34587456D01*
X3637244Y36111456D01*
X6939244Y36111456D01*
X6939244Y34587456D01*
G36*
X6939244Y34587456D02*
G01*
X3637244Y34587456D01*
X3637244Y36111456D01*
X6939244Y36111456D01*
X6939244Y34587456D01*
G37*
X6939244Y59987456D02*
X3637244Y59987456D01*
X3637244Y61511456D01*
X6939244Y61511456D01*
X6939244Y59987456D01*
G36*
X6939244Y59987456D02*
G01*
X3637244Y59987456D01*
X3637244Y61511456D01*
X6939244Y61511456D01*
X6939244Y59987456D01*
G37*
X6935563Y65059041D02*
X3633563Y65059041D01*
X3633563Y66583041D01*
X6935563Y66583041D01*
X6935563Y65059041D01*
G36*
X6935563Y65059041D02*
G01*
X3633563Y65059041D01*
X3633563Y66583041D01*
X6935563Y66583041D01*
X6935563Y65059041D01*
G37*
X6939244Y29507456D02*
X3637244Y29507456D01*
X3637244Y31031456D01*
X6939244Y31031456D01*
X6939244Y29507456D01*
G36*
X6939244Y29507456D02*
G01*
X3637244Y29507456D01*
X3637244Y31031456D01*
X6939244Y31031456D01*
X6939244Y29507456D01*
G37*
X6939244Y39667456D02*
X3637244Y39667456D01*
X3637244Y41191456D01*
X6939244Y41191456D01*
X6939244Y39667456D01*
G36*
X6939244Y39667456D02*
G01*
X3637244Y39667456D01*
X3637244Y41191456D01*
X6939244Y41191456D01*
X6939244Y39667456D01*
G37*
X6939244Y57447456D02*
X3637244Y57447456D01*
X3637244Y58971456D01*
X6939244Y58971456D01*
X6939244Y57447456D01*
G36*
X6939244Y57447456D02*
G01*
X3637244Y57447456D01*
X3637244Y58971456D01*
X6939244Y58971456D01*
X6939244Y57447456D01*
G37*
X6935563Y70139041D02*
X3633563Y70139041D01*
X3633563Y71663041D01*
X6935563Y71663041D01*
X6935563Y70139041D01*
G36*
X6935563Y70139041D02*
G01*
X3633563Y70139041D01*
X3633563Y71663041D01*
X6935563Y71663041D01*
X6935563Y70139041D01*
G37*
X26535381Y26921939D02*
X23233381Y26921939D01*
X23233381Y28445939D01*
X26535381Y28445939D01*
X26535381Y26921939D01*
G36*
X26535381Y26921939D02*
G01*
X23233381Y26921939D01*
X23233381Y28445939D01*
X26535381Y28445939D01*
X26535381Y26921939D01*
G37*
X43434000Y59944000D02*
X40132000Y59944000D01*
X40132000Y61468000D01*
X43434000Y61468000D01*
X43434000Y59944000D01*
G36*
X43434000Y59944000D02*
G01*
X40132000Y59944000D01*
X40132000Y61468000D01*
X43434000Y61468000D01*
X43434000Y59944000D01*
G37*
X52324000Y20320000D02*
X50800000Y20320000D01*
X50800000Y23622000D01*
X52324000Y23622000D01*
X52324000Y20320000D01*
G36*
X52324000Y20320000D02*
G01*
X50800000Y20320000D01*
X50800000Y23622000D01*
X52324000Y23622000D01*
X52324000Y20320000D01*
G37*
X43434000Y70104000D02*
X40132000Y70104000D01*
X40132000Y71628000D01*
X43434000Y71628000D01*
X43434000Y70104000D01*
G36*
X43434000Y70104000D02*
G01*
X40132000Y70104000D01*
X40132000Y71628000D01*
X43434000Y71628000D01*
X43434000Y70104000D01*
G37*
X62992000Y39624000D02*
X59690000Y39624000D01*
X59690000Y41148000D01*
X62992000Y41148000D01*
X62992000Y39624000D01*
G36*
X62992000Y39624000D02*
G01*
X59690000Y39624000D01*
X59690000Y41148000D01*
X62992000Y41148000D01*
X62992000Y39624000D01*
G37*
X6939244Y24427456D02*
X3637244Y24427456D01*
X3637244Y25951456D01*
X6939244Y25951456D01*
X6939244Y24427456D01*
G36*
X6939244Y24427456D02*
G01*
X3637244Y24427456D01*
X3637244Y25951456D01*
X6939244Y25951456D01*
X6939244Y24427456D01*
G37*
X13332297Y20320001D02*
X11808297Y20320001D01*
X11808297Y23622001D01*
X13332297Y23622001D01*
X13332297Y20320001D01*
G36*
X13332297Y20320001D02*
G01*
X11808297Y20320001D01*
X11808297Y23622001D01*
X13332297Y23622001D01*
X13332297Y20320001D01*
G37*
X26493563Y67599041D02*
X23191563Y67599041D01*
X23191563Y69123041D01*
X26493563Y69123041D01*
X26493563Y67599041D01*
G36*
X26493563Y67599041D02*
G01*
X23191563Y67599041D01*
X23191563Y69123041D01*
X26493563Y69123041D01*
X26493563Y67599041D01*
G37*
X62992000Y70104000D02*
X59690000Y70104000D01*
X59690000Y71628000D01*
X62992000Y71628000D01*
X62992000Y70104000D01*
G36*
X62992000Y70104000D02*
G01*
X59690000Y70104000D01*
X59690000Y71628000D01*
X62992000Y71628000D01*
X62992000Y70104000D01*
G37*
X43434000Y39624000D02*
X40132000Y39624000D01*
X40132000Y41148000D01*
X43434000Y41148000D01*
X43434000Y39624000D01*
G36*
X43434000Y39624000D02*
G01*
X40132000Y39624000D01*
X40132000Y41148000D01*
X43434000Y41148000D01*
X43434000Y39624000D01*
G37*
X62992000Y52324000D02*
X59690000Y52324000D01*
X59690000Y53848000D01*
X62992000Y53848000D01*
X62992000Y52324000D01*
G36*
X62992000Y52324000D02*
G01*
X59690000Y52324000D01*
X59690000Y53848000D01*
X62992000Y53848000D01*
X62992000Y52324000D01*
G37*
X26493563Y65059041D02*
X23191563Y65059041D01*
X23191563Y66583041D01*
X26493563Y66583041D01*
X26493563Y65059041D01*
G36*
X26493563Y65059041D02*
G01*
X23191563Y65059041D01*
X23191563Y66583041D01*
X26493563Y66583041D01*
X26493563Y65059041D01*
G37*
X26533734Y52364953D02*
X23231734Y52364953D01*
X23231734Y53888953D01*
X26533734Y53888953D01*
X26533734Y52364953D01*
G36*
X26533734Y52364953D02*
G01*
X23231734Y52364953D01*
X23231734Y53888953D01*
X26533734Y53888953D01*
X26533734Y52364953D01*
G37*
X62992000Y59944000D02*
X59690000Y59944000D01*
X59690000Y61468000D01*
X62992000Y61468000D01*
X62992000Y59944000D01*
G36*
X62992000Y59944000D02*
G01*
X59690000Y59944000D01*
X59690000Y61468000D01*
X62992000Y61468000D01*
X62992000Y59944000D01*
G37*
X26535381Y24381939D02*
X23233381Y24381939D01*
X23233381Y25905939D01*
X26535381Y25905939D01*
X26535381Y24381939D01*
G36*
X26535381Y24381939D02*
G01*
X23233381Y24381939D01*
X23233381Y25905939D01*
X26535381Y25905939D01*
X26535381Y24381939D01*
G37*
X43434000Y32004000D02*
X40132000Y32004000D01*
X40132000Y33528000D01*
X43434000Y33528000D01*
X43434000Y32004000D01*
G36*
X43434000Y32004000D02*
G01*
X40132000Y32004000D01*
X40132000Y33528000D01*
X43434000Y33528000D01*
X43434000Y32004000D01*
G37*
X26493563Y70139041D02*
X23191563Y70139041D01*
X23191563Y71663041D01*
X26493563Y71663041D01*
X26493563Y70139041D01*
G36*
X26493563Y70139041D02*
G01*
X23191563Y70139041D01*
X23191563Y71663041D01*
X26493563Y71663041D01*
X26493563Y70139041D01*
G37*
X62992000Y21844000D02*
X59690000Y21844000D01*
X59690000Y23368000D01*
X62992000Y23368000D01*
X62992000Y21844000D01*
G36*
X62992000Y21844000D02*
G01*
X59690000Y21844000D01*
X59690000Y23368000D01*
X62992000Y23368000D01*
X62992000Y21844000D01*
G37*
X26535381Y37081939D02*
X23233381Y37081939D01*
X23233381Y38605939D01*
X26535381Y38605939D01*
X26535381Y37081939D01*
G36*
X26535381Y37081939D02*
G01*
X23233381Y37081939D01*
X23233381Y38605939D01*
X26535381Y38605939D01*
X26535381Y37081939D01*
G37*
X6939244Y26967456D02*
X3637244Y26967456D01*
X3637244Y28491456D01*
X6939244Y28491456D01*
X6939244Y26967456D01*
G36*
X6939244Y26967456D02*
G01*
X3637244Y26967456D01*
X3637244Y28491456D01*
X6939244Y28491456D01*
X6939244Y26967456D01*
G37*
X18412297Y20320001D02*
X16888297Y20320001D01*
X16888297Y23622001D01*
X18412297Y23622001D01*
X18412297Y20320001D01*
G36*
X18412297Y20320001D02*
G01*
X16888297Y20320001D01*
X16888297Y23622001D01*
X18412297Y23622001D01*
X18412297Y20320001D01*
G37*
X26533734Y49824953D02*
X23231734Y49824953D01*
X23231734Y51348953D01*
X26533734Y51348953D01*
X26533734Y49824953D01*
G36*
X26533734Y49824953D02*
G01*
X23231734Y49824953D01*
X23231734Y51348953D01*
X26533734Y51348953D01*
X26533734Y49824953D01*
G37*
X43434000Y62484000D02*
X40132000Y62484000D01*
X40132000Y64008000D01*
X43434000Y64008000D01*
X43434000Y62484000D01*
G36*
X43434000Y62484000D02*
G01*
X40132000Y62484000D01*
X40132000Y64008000D01*
X43434000Y64008000D01*
X43434000Y62484000D01*
G37*
X62992000Y62484000D02*
X59690000Y62484000D01*
X59690000Y64008000D01*
X62992000Y64008000D01*
X62992000Y62484000D01*
G36*
X62992000Y62484000D02*
G01*
X59690000Y62484000D01*
X59690000Y64008000D01*
X62992000Y64008000D01*
X62992000Y62484000D01*
G37*
X6939244Y44747456D02*
X3637244Y44747456D01*
X3637244Y46271456D01*
X6939244Y46271456D01*
X6939244Y44747456D01*
G36*
X6939244Y44747456D02*
G01*
X3637244Y44747456D01*
X3637244Y46271456D01*
X6939244Y46271456D01*
X6939244Y44747456D01*
G37*
X6939244Y21887456D02*
X3637244Y21887456D01*
X3637244Y23411456D01*
X6939244Y23411456D01*
X6939244Y21887456D01*
G36*
X6939244Y21887456D02*
G01*
X3637244Y21887456D01*
X3637244Y23411456D01*
X6939244Y23411456D01*
X6939244Y21887456D01*
G37*
X62992000Y32004000D02*
X59690000Y32004000D01*
X59690000Y33528000D01*
X62992000Y33528000D01*
X62992000Y32004000D01*
G36*
X62992000Y32004000D02*
G01*
X59690000Y32004000D01*
X59690000Y33528000D01*
X62992000Y33528000D01*
X62992000Y32004000D01*
G37*
X43434000Y57404000D02*
X40132000Y57404000D01*
X40132000Y58928000D01*
X43434000Y58928000D01*
X43434000Y57404000D01*
G36*
X43434000Y57404000D02*
G01*
X40132000Y57404000D01*
X40132000Y58928000D01*
X43434000Y58928000D01*
X43434000Y57404000D01*
G37*
X43434000Y67564000D02*
X40132000Y67564000D01*
X40132000Y69088000D01*
X43434000Y69088000D01*
X43434000Y67564000D01*
G36*
X43434000Y67564000D02*
G01*
X40132000Y67564000D01*
X40132000Y69088000D01*
X43434000Y69088000D01*
X43434000Y67564000D01*
G37*
X26533734Y54904953D02*
X23231734Y54904953D01*
X23231734Y56428953D01*
X26533734Y56428953D01*
X26533734Y54904953D01*
G36*
X26533734Y54904953D02*
G01*
X23231734Y54904953D01*
X23231734Y56428953D01*
X26533734Y56428953D01*
X26533734Y54904953D01*
G37*
X62992000Y37084000D02*
X59690000Y37084000D01*
X59690000Y38608000D01*
X62992000Y38608000D01*
X62992000Y37084000D01*
G36*
X62992000Y37084000D02*
G01*
X59690000Y37084000D01*
X59690000Y38608000D01*
X62992000Y38608000D01*
X62992000Y37084000D01*
G37*
X26533734Y47284953D02*
X23231734Y47284953D01*
X23231734Y48808953D01*
X26533734Y48808953D01*
X26533734Y47284953D01*
G36*
X26533734Y47284953D02*
G01*
X23231734Y47284953D01*
X23231734Y48808953D01*
X26533734Y48808953D01*
X26533734Y47284953D01*
G37*
X26535381Y34541939D02*
X23233381Y34541939D01*
X23233381Y36065939D01*
X26535381Y36065939D01*
X26535381Y34541939D01*
G36*
X26535381Y34541939D02*
G01*
X23233381Y34541939D01*
X23233381Y36065939D01*
X26535381Y36065939D01*
X26535381Y34541939D01*
G37*
X43434000Y29464000D02*
X40132000Y29464000D01*
X40132000Y30988000D01*
X43434000Y30988000D01*
X43434000Y29464000D01*
G36*
X43434000Y29464000D02*
G01*
X40132000Y29464000D01*
X40132000Y30988000D01*
X43434000Y30988000D01*
X43434000Y29464000D01*
G37*
X43434000Y49784000D02*
X40132000Y49784000D01*
X40132000Y51308000D01*
X43434000Y51308000D01*
X43434000Y49784000D01*
G36*
X43434000Y49784000D02*
G01*
X40132000Y49784000D01*
X40132000Y51308000D01*
X43434000Y51308000D01*
X43434000Y49784000D01*
G37*
X6939244Y49827456D02*
X3637244Y49827456D01*
X3637244Y51351456D01*
X6939244Y51351456D01*
X6939244Y49827456D01*
G36*
X6939244Y49827456D02*
G01*
X3637244Y49827456D01*
X3637244Y51351456D01*
X6939244Y51351456D01*
X6939244Y49827456D01*
G37*
X62992000Y54864000D02*
X59690000Y54864000D01*
X59690000Y56388000D01*
X62992000Y56388000D01*
X62992000Y54864000D01*
G36*
X62992000Y54864000D02*
G01*
X59690000Y54864000D01*
X59690000Y56388000D01*
X62992000Y56388000D01*
X62992000Y54864000D01*
G37*
X43434000Y42164000D02*
X40132000Y42164000D01*
X40132000Y43688000D01*
X43434000Y43688000D01*
X43434000Y42164000D01*
G36*
X43434000Y42164000D02*
G01*
X40132000Y42164000D01*
X40132000Y43688000D01*
X43434000Y43688000D01*
X43434000Y42164000D01*
G37*
X43434000Y37084000D02*
X40132000Y37084000D01*
X40132000Y38608000D01*
X43434000Y38608000D01*
X43434000Y37084000D01*
G36*
X43434000Y37084000D02*
G01*
X40132000Y37084000D01*
X40132000Y38608000D01*
X43434000Y38608000D01*
X43434000Y37084000D01*
G37*
X6935563Y62519041D02*
X3633563Y62519041D01*
X3633563Y64043041D01*
X6935563Y64043041D01*
X6935563Y62519041D01*
G36*
X6935563Y62519041D02*
G01*
X3633563Y62519041D01*
X3633563Y64043041D01*
X6935563Y64043041D01*
X6935563Y62519041D01*
G37*
X26533734Y59984953D02*
X23231734Y59984953D01*
X23231734Y61508953D01*
X26533734Y61508953D01*
X26533734Y59984953D01*
G36*
X26533734Y59984953D02*
G01*
X23231734Y59984953D01*
X23231734Y61508953D01*
X26533734Y61508953D01*
X26533734Y59984953D01*
G37*
X6939244Y32047456D02*
X3637244Y32047456D01*
X3637244Y33571456D01*
X6939244Y33571456D01*
X6939244Y32047456D01*
G36*
X6939244Y32047456D02*
G01*
X3637244Y32047456D01*
X3637244Y33571456D01*
X6939244Y33571456D01*
X6939244Y32047456D01*
G37*
X62992000Y42164000D02*
X59690000Y42164000D01*
X59690000Y43688000D01*
X62992000Y43688000D01*
X62992000Y42164000D01*
G36*
X62992000Y42164000D02*
G01*
X59690000Y42164000D01*
X59690000Y43688000D01*
X62992000Y43688000D01*
X62992000Y42164000D01*
G37*
X43434000Y44704000D02*
X40132000Y44704000D01*
X40132000Y46228000D01*
X43434000Y46228000D01*
X43434000Y44704000D01*
G36*
X43434000Y44704000D02*
G01*
X40132000Y44704000D01*
X40132000Y46228000D01*
X43434000Y46228000D01*
X43434000Y44704000D01*
G37*
X54864000Y20320000D02*
X53340000Y20320000D01*
X53340000Y23622000D01*
X54864000Y23622000D01*
X54864000Y20320000D01*
G36*
X54864000Y20320000D02*
G01*
X53340000Y20320000D01*
X53340000Y23622000D01*
X54864000Y23622000D01*
X54864000Y20320000D01*
G37*
X6939244Y52367456D02*
X3637244Y52367456D01*
X3637244Y53891456D01*
X6939244Y53891456D01*
X6939244Y52367456D01*
G36*
X6939244Y52367456D02*
G01*
X3637244Y52367456D01*
X3637244Y53891456D01*
X6939244Y53891456D01*
X6939244Y52367456D01*
G37*
X43434000Y21844000D02*
X40132000Y21844000D01*
X40132000Y23368000D01*
X43434000Y23368000D01*
X43434000Y21844000D01*
G36*
X43434000Y21844000D02*
G01*
X40132000Y21844000D01*
X40132000Y23368000D01*
X43434000Y23368000D01*
X43434000Y21844000D01*
G37*
X26533734Y57444953D02*
X23231734Y57444953D01*
X23231734Y58968953D01*
X26533734Y58968953D01*
X26533734Y57444953D01*
G36*
X26533734Y57444953D02*
G01*
X23231734Y57444953D01*
X23231734Y58968953D01*
X26533734Y58968953D01*
X26533734Y57444953D01*
G37*
X26535381Y29461939D02*
X23233381Y29461939D01*
X23233381Y30985939D01*
X26535381Y30985939D01*
X26535381Y29461939D01*
G36*
X26535381Y29461939D02*
G01*
X23233381Y29461939D01*
X23233381Y30985939D01*
X26535381Y30985939D01*
X26535381Y29461939D01*
G37*
D11*
%TO.C,C2*%
X35259691Y40692335D03*
X38384691Y40692335D03*
%TD*%
D12*
%TO.C,U4*%
X30971070Y32998890D03*
X30971070Y31728890D03*
X30971070Y30458890D03*
X30971070Y29188890D03*
X35921070Y29188890D03*
X35921070Y30458890D03*
X35921070Y31728890D03*
X35921070Y32998890D03*
%TD*%
D13*
%TO.C,C1*%
X31790536Y40640001D03*
X28665536Y40640001D03*
%TD*%
M02*
